<?xml version="1.0" standalone="no"?>
<!DOCTYPE svg PUBLIC "-//W3C//DTD SVG 20010904//EN"
 "http://www.w3.org/TR/2001/REC-SVG-20010904/DTD/svg10.dtd">
<svg version="1.0" xmlns="http://www.w3.org/2000/svg"
 width="4096.000000pt" height="4096.000000pt" viewBox="0 0 4096.000000 4096.000000"
 preserveAspectRatio="xMidYMid meet">
<metadata>
Created by potrace 1.11, written by Peter Selinger 2001-2013
</metadata>
<g transform="translate(0.000000,4096.000000) scale(0.100000,-0.100000)"
fill="#000000" stroke="none">
<path d="M24057 37274 c-1 -1 -63 -4 -137 -7 -74 -4 -146 -9 -160 -11 -14 -2
-54 -7 -90 -10 -113 -11 -288 -36 -440 -62 -19 -4 -50 -8 -68 -10 -18 -2 -42
-6 -53 -9 -11 -4 -32 -8 -47 -10 -15 -3 -38 -7 -52 -10 -14 -3 -83 -16 -155
-30 -71 -14 -139 -27 -150 -29 -190 -40 -724 -170 -845 -206 -19 -6 -109 -31
-200 -56 -262 -72 -288 -80 -415 -118 -66 -20 -151 -46 -190 -57 -38 -11 -77
-23 -85 -26 -8 -3 -19 -7 -25 -9 -93 -23 -675 -228 -860 -302 -289 -117 -350
-145 -710 -328 -327 -165 -349 -177 -600 -314 -27 -15 -106 -58 -175 -95 -69
-38 -141 -77 -160 -88 -19 -11 -91 -51 -160 -90 -216 -120 -402 -228 -492
-283 -48 -30 -90 -54 -92 -54 -3 0 -25 -13 -49 -30 -25 -16 -49 -30 -55 -30
-6 0 -12 -3 -14 -7 -1 -5 -47 -35 -101 -68 -54 -33 -117 -72 -140 -87 -23 -15
-49 -31 -57 -35 -8 -5 -40 -24 -70 -44 -30 -20 -117 -76 -193 -125 -298 -192
-544 -359 -660 -447 -67 -51 -124 -94 -127 -97 -3 -3 -21 -17 -40 -30 -19 -13
-37 -27 -40 -30 -3 -3 -88 -68 -190 -144 -102 -77 -198 -150 -215 -163 -44
-34 -42 -33 -150 -115 -96 -72 -120 -92 -225 -183 -26 -22 -58 -49 -71 -60
-13 -11 -89 -76 -169 -144 -80 -68 -167 -142 -194 -165 -27 -22 -66 -54 -85
-71 -20 -16 -38 -32 -41 -35 -3 -3 -61 -53 -130 -112 -136 -115 -132 -111
-365 -333 -88 -84 -176 -167 -195 -185 -279 -258 -529 -505 -745 -734 -77 -82
-165 -175 -195 -207 -30 -32 -104 -110 -165 -175 -60 -64 -130 -138 -155 -164
-60 -63 -118 -128 -160 -180 -19 -24 -42 -51 -50 -59 -9 -9 -36 -41 -60 -71
-24 -30 -48 -59 -54 -65 -6 -5 -27 -30 -47 -55 -20 -25 -45 -55 -55 -67 -11
-12 -26 -30 -34 -40 -85 -102 -126 -151 -141 -168 -10 -11 -57 -67 -105 -125
-48 -58 -90 -107 -94 -110 -7 -6 -139 -180 -211 -281 -25 -35 -155 -212 -289
-394 -133 -181 -257 -353 -274 -381 -17 -27 -36 -59 -43 -70 -19 -30 -132
-212 -182 -291 -26 -39 -64 -100 -85 -135 -22 -35 -54 -85 -71 -113 -18 -27
-54 -86 -81 -130 -27 -44 -58 -94 -69 -111 -11 -17 -87 -165 -170 -330 -82
-164 -153 -300 -157 -302 -5 -2 -8 -9 -8 -15 0 -7 -27 -64 -60 -127 -63 -121
-113 -233 -168 -380 -26 -70 -49 -129 -167 -435 -77 -198 -107 -293 -147 -455
-60 -249 -58 -239 -64 -270 -3 -14 -27 -117 -54 -230 -43 -181 -49 -222 -55
-355 -3 -82 -8 -181 -10 -220 -4 -65 -14 -278 -19 -405 -2 -30 5 -102 15 -160
9 -58 20 -118 22 -135 26 -159 36 -226 42 -260 20 -134 48 -282 59 -314 51
-141 297 -794 301 -801 3 -6 8 -18 10 -27 2 -10 13 -40 23 -68 11 -27 61 -162
112 -300 75 -201 102 -262 139 -312 25 -34 70 -95 98 -135 29 -40 203 -279
386 -531 l334 -459 389 -293 c214 -162 394 -298 399 -302 6 -5 93 -71 194
-147 173 -131 198 -145 410 -249 124 -60 258 -124 296 -142 39 -18 149 -71
245 -117 96 -47 218 -106 270 -131 242 -115 497 -238 512 -247 20 -11 288
-130 293 -130 3 0 43 -18 90 -40 47 -22 87 -40 90 -40 2 0 33 -13 67 -29 35
-15 153 -68 263 -116 110 -48 295 -129 410 -180 213 -94 230 -101 275 -109 14
-3 70 -16 125 -30 55 -14 111 -27 125 -30 88 -20 165 -38 320 -76 96 -23 181
-43 190 -45 8 -2 35 -8 60 -14 25 -7 52 -13 60 -15 72 -18 199 -48 215 -51 11
-3 38 -9 60 -14 74 -18 180 -42 190 -43 6 0 21 -5 35 -10 14 -5 50 -11 80 -13
185 -13 329 -23 450 -30 82 -5 153 -10 305 -20 39 -3 111 -7 160 -10 50 -3
128 -8 175 -11 89 -6 112 -8 300 -20 63 -4 194 -7 290 -7 181 0 978 13 1110
18 41 1 183 6 315 9 132 4 276 9 320 11 44 2 136 7 205 10 69 3 161 8 205 10
44 2 134 7 200 10 189 9 295 15 360 20 157 12 332 24 435 30 47 3 108 7 135
10 28 2 86 7 130 11 44 3 91 7 105 9 14 1 59 6 100 9 41 4 91 9 110 11 19 2
68 7 107 10 40 3 80 8 90 9 10 2 61 7 113 11 52 4 97 8 100 10 3 1 36 6 73 10
37 3 76 8 85 10 9 1 46 6 82 10 36 3 76 8 90 10 14 2 49 7 79 10 30 4 61 8 70
10 9 1 47 6 86 10 38 4 72 8 75 10 3 2 35 6 71 9 36 4 76 9 90 11 21 3 140 20
216 29 16 2 52 7 82 11 30 4 61 8 70 10 9 1 45 6 81 9 78 8 156 16 190 21 14
2 59 6 100 10 41 4 86 8 100 10 14 2 59 7 100 11 41 3 89 8 105 9 17 2 73 6
125 10 52 4 111 8 130 10 19 2 76 6 125 10 50 3 110 8 135 11 151 15 882 23
1025 11 44 -4 114 -9 155 -12 41 -3 115 -7 163 -10 110 -7 274 -24 297 -30 3
-1 25 -5 50 -9 25 -4 54 -9 65 -11 11 -2 23 -4 27 -4 3 -1 17 -20 31 -43 54
-94 77 -146 83 -189 4 -24 14 -91 24 -149 14 -82 17 -146 15 -295 -2 -104 -6
-201 -9 -215 -3 -14 -9 -41 -12 -60 -4 -19 -8 -44 -10 -55 -3 -11 -11 -57 -19
-102 -8 -45 -31 -137 -51 -205 -20 -68 -44 -152 -54 -186 -18 -62 -89 -255
-115 -317 -8 -16 -17 -41 -20 -55 -4 -14 -23 -59 -42 -100 -20 -41 -64 -137
-99 -213 -35 -75 -78 -163 -95 -195 -18 -31 -52 -95 -76 -142 -24 -47 -57
-107 -73 -135 -16 -27 -33 -57 -36 -65 -4 -8 -17 -31 -29 -50 -12 -19 -48 -80
-81 -135 -32 -55 -73 -121 -91 -147 -18 -26 -33 -50 -33 -52 0 -3 -60 -94
-133 -203 -133 -198 -189 -280 -301 -438 -26 -36 -134 -189 -188 -265 -29 -41
-55 -77 -58 -80 -3 -3 -34 -45 -70 -95 -35 -49 -67 -92 -71 -95 -3 -3 -30 -36
-60 -75 -29 -38 -55 -72 -59 -75 -3 -3 -19 -23 -36 -45 -16 -22 -36 -49 -45
-60 -10 -11 -63 -78 -120 -150 -56 -71 -105 -132 -108 -135 -4 -3 -29 -32 -56
-65 -28 -33 -52 -62 -55 -65 -9 -9 -74 -85 -120 -140 -25 -29 -50 -58 -55 -64
-6 -6 -48 -56 -95 -111 -47 -55 -92 -107 -100 -116 -8 -8 -37 -40 -65 -70 -27
-30 -75 -81 -105 -114 -30 -33 -100 -110 -155 -170 -211 -231 -772 -798 -1009
-1020 -76 -72 -160 -150 -186 -175 -77 -75 -210 -196 -320 -290 -14 -12 -54
-48 -90 -80 -216 -192 -370 -324 -549 -470 -255 -208 -232 -188 -287 -235 -26
-22 -57 -46 -68 -54 -12 -8 -23 -18 -26 -21 -3 -3 -23 -19 -45 -36 -22 -16
-46 -34 -55 -41 -8 -7 -94 -71 -190 -143 -96 -73 -215 -162 -265 -199 -98 -73
-243 -177 -281 -201 -26 -17 -93 -62 -334 -229 -91 -63 -174 -120 -185 -126
-11 -6 -45 -27 -75 -46 -30 -19 -138 -86 -240 -149 -102 -62 -207 -128 -235
-145 -75 -48 -197 -116 -460 -255 -55 -29 -104 -56 -110 -60 -34 -25 -319
-165 -550 -270 -148 -67 -288 -131 -310 -141 -22 -10 -94 -39 -160 -64 -66
-26 -129 -50 -140 -55 -95 -43 -644 -245 -720 -264 -5 -2 -17 -6 -25 -9 -74
-30 -556 -166 -704 -198 -49 -11 -92 -22 -95 -23 -3 -2 -22 -7 -41 -10 -20 -3
-65 -12 -100 -21 -36 -9 -78 -18 -95 -21 -53 -10 -69 -13 -95 -19 -14 -3 -38
-8 -55 -11 -16 -3 -75 -14 -130 -24 -55 -11 -113 -22 -130 -24 -75 -13 -93
-15 -135 -21 -25 -3 -52 -8 -60 -10 -8 -2 -40 -7 -70 -11 -64 -8 -81 -10 -135
-18 -103 -14 -319 -39 -450 -52 -38 -3 -77 -8 -85 -9 -8 -1 -44 -6 -80 -9 -36
-4 -81 -9 -100 -11 -19 -2 -66 -7 -105 -10 -82 -7 -128 -13 -210 -25 -33 -5
-76 -12 -95 -14 -41 -6 -244 -53 -280 -66 -250 -88 -298 -114 -366 -200 -58
-74 -106 -183 -144 -325 -25 -95 -36 -147 -65 -310 -2 -16 -8 -61 -11 -100 -3
-38 -8 -73 -10 -76 -17 -28 -24 -613 -10 -794 11 -142 22 -257 31 -305 2 -14
7 -45 10 -70 4 -25 10 -61 15 -80 5 -19 12 -53 16 -75 10 -66 110 -250 158
-288 160 -131 149 -126 586 -329 129 -61 291 -137 359 -169 68 -32 125 -59
126 -59 2 0 65 -29 140 -65 75 -36 157 -75 183 -86 26 -12 103 -49 172 -81
322 -154 507 -215 770 -253 19 -3 46 -8 60 -11 114 -25 357 -39 680 -39 253 1
357 5 535 20 17 2 68 6 115 10 119 9 219 20 270 30 39 7 121 18 225 30 70 9
99 13 185 30 41 8 86 16 100 19 21 3 97 18 225 42 11 2 43 8 70 14 28 6 59 12
70 14 17 4 333 79 375 90 8 2 87 25 175 51 88 25 167 48 175 50 8 2 89 30 180
63 156 57 211 79 305 122 22 10 69 31 105 47 36 16 90 40 120 54 134 59 621
309 743 381 26 15 49 28 51 28 5 0 252 140 381 215 55 32 129 75 165 96 93 53
408 244 597 362 90 56 181 113 203 127 141 87 313 199 584 379 337 225 357
239 675 460 67 47 130 91 139 96 9 6 23 16 30 23 8 7 27 21 41 30 14 9 31 21
36 25 6 5 87 64 182 132 188 135 686 507 703 525 3 3 66 53 140 110 74 58 144
112 155 122 11 9 56 45 100 80 44 34 91 73 105 85 22 19 175 145 270 223 75
62 185 154 196 164 6 6 35 32 65 57 30 25 88 75 129 110 41 36 88 76 104 90
16 13 43 37 60 52 17 16 65 60 106 97 41 37 89 81 105 97 17 15 70 64 119 108
240 217 844 821 1129 1130 30 33 70 76 87 95 18 19 74 80 125 135 51 55 148
163 216 240 143 162 151 172 179 205 12 14 36 41 53 60 18 19 61 70 97 114 36
43 74 88 85 100 11 12 49 57 85 101 36 44 73 89 83 100 11 11 123 151 251 310
211 264 286 361 488 630 37 50 72 95 77 101 5 6 32 44 61 85 29 41 104 144
167 230 62 86 113 160 113 164 0 5 7 15 16 24 8 9 64 88 124 176 60 88 114
165 120 172 5 7 10 15 10 17 0 3 25 42 55 87 30 45 55 82 55 84 0 2 40 63 88
137 49 73 108 165 131 203 62 103 129 208 139 220 5 6 11 15 13 21 4 9 103
183 161 282 16 26 33 58 40 72 7 14 15 27 18 30 3 3 21 34 40 70 50 96 77 147
117 220 69 127 353 701 353 714 0 3 11 29 24 58 14 29 46 103 72 163 25 61 54
128 64 150 16 36 60 152 143 370 104 277 251 746 283 905 3 14 8 34 11 45 9
26 11 34 18 70 3 17 10 44 16 61 10 33 14 49 29 129 6 28 12 61 15 75 3 14 9
50 15 80 13 75 17 96 30 160 6 30 13 66 15 80 2 14 6 36 9 50 3 14 8 52 11 85
3 33 8 83 10 110 32 328 31 299 22 605 -4 109 -14 233 -22 279 -9 46 -18 96
-20 110 -8 56 -16 107 -20 121 -3 8 -7 32 -11 54 -3 21 -7 47 -9 58 -2 11 -88
211 -191 446 -103 235 -202 461 -219 502 -18 41 -42 95 -53 120 -11 25 -29 65
-40 90 -15 35 -102 127 -387 410 -202 201 -399 398 -439 438 -78 81 -30 55
-856 460 -140 68 -374 183 -520 254 -235 116 -333 162 -555 263 -33 15 -82 37
-110 50 -62 29 -174 80 -240 110 -305 139 -406 185 -409 185 -2 0 -55 24 -117
54 -104 49 -132 59 -194 70 -40 7 -91 15 -120 20 -34 6 -187 33 -225 40 -30 6
-376 66 -405 70 -29 5 -216 37 -240 42 -11 2 -47 9 -80 14 -33 6 -72 12 -87
15 -16 3 -40 7 -55 10 -16 3 -93 16 -173 30 -80 14 -155 27 -168 30 -65 12
-2127 24 -2237 12 -38 -4 -90 -9 -115 -12 -25 -3 -67 -7 -95 -10 -96 -9 -170
-16 -220 -20 -27 -3 -70 -7 -95 -10 -96 -11 -242 -25 -410 -41 -25 -2 -70 -6
-100 -9 -73 -8 -122 -13 -200 -20 -36 -4 -76 -8 -90 -10 -14 -2 -64 -6 -111
-10 -47 -3 -95 -7 -105 -9 -10 -2 -55 -7 -99 -11 -44 -3 -93 -8 -110 -10 -34
-4 -114 -12 -195 -20 -30 -3 -75 -7 -100 -10 -91 -9 -190 -19 -310 -30 -36 -4
-76 -8 -90 -10 -28 -4 -155 -14 -245 -20 -57 -3 -147 -9 -300 -20 -74 -5 -168
-11 -300 -20 -78 -5 -125 -8 -310 -20 -49 -3 -117 -8 -150 -10 -33 -3 -96 -7
-140 -10 -192 -12 -254 -16 -310 -20 -33 -3 -103 -7 -155 -10 -52 -3 -124 -8
-160 -10 -87 -6 -203 -13 -325 -20 -55 -3 -131 -7 -170 -10 -38 -2 -122 -7
-185 -10 -63 -3 -151 -8 -195 -10 -44 -2 -143 -7 -220 -10 -231 -9 -366 -15
-435 -20 -287 -19 -358 -21 -510 -12 -58 4 -145 9 -195 12 -159 10 -219 15
-250 20 -16 3 -55 10 -85 16 -30 6 -64 12 -75 13 -39 6 -330 58 -345 62 -8 2
-49 13 -90 24 -41 11 -82 22 -90 24 -8 2 -42 12 -75 22 -33 10 -64 19 -70 20
-76 14 -130 43 -249 131 -72 54 -136 102 -142 108 -28 26 -241 225 -288 270
-50 48 -310 361 -332 401 -109 194 -174 316 -183 344 -6 19 -27 88 -46 154
-20 65 -37 122 -40 126 -6 9 -8 510 -2 535 6 25 18 105 37 250 20 144 28 178
94 400 67 224 77 254 160 455 70 169 348 748 365 760 4 3 10 12 14 20 4 8 20
38 37 65 16 28 49 83 72 123 24 41 48 81 53 90 6 10 24 40 40 67 77 130 461
685 495 715 3 3 17 21 30 40 13 19 27 37 30 40 3 3 30 39 62 80 31 41 65 85
75 96 10 12 34 41 55 65 20 24 44 54 55 66 10 11 34 40 52 63 19 24 40 48 46
54 5 6 30 36 55 66 25 30 49 60 55 66 5 6 42 46 80 89 39 43 79 88 90 99 11
12 40 44 64 71 154 173 425 457 662 694 166 166 252 248 415 396 12 11 66 61
119 110 54 50 103 95 109 100 12 11 126 108 165 140 13 11 29 25 35 30 6 6 40
35 76 65 36 30 74 63 85 74 11 10 99 81 195 158 96 76 184 146 195 156 25 21
305 232 335 252 12 8 68 49 124 90 55 41 112 83 126 92 262 180 564 381 662
442 60 37 173 109 228 145 14 8 34 21 45 27 11 6 117 67 235 136 220 128 266
154 430 241 52 27 120 64 150 81 61 35 556 282 635 317 28 12 53 22 58 21 4
-1 7 3 7 8 0 6 5 10 11 10 6 0 63 25 126 55 64 30 117 55 119 55 2 0 41 18 87
41 45 22 82 39 82 38 0 -1 36 14 79 35 43 20 81 36 84 36 3 0 47 20 99 45 51
25 95 45 98 45 2 0 28 11 57 24 29 14 118 53 198 87 80 34 163 69 185 79 114
50 235 100 245 100 5 0 18 4 28 10 35 19 304 113 392 136 8 2 47 13 85 24 39
11 79 22 90 25 11 3 45 12 75 20 61 17 144 37 345 80 104 22 105 22 162 31 26
3 55 8 65 10 9 1 38 6 65 10 26 3 57 8 68 10 25 5 80 11 175 19 41 3 93 8 115
11 22 3 126 7 230 10 l190 5 50 -82 c27 -45 65 -116 83 -158 18 -42 63 -143
99 -226 36 -82 76 -175 90 -205 36 -78 47 -110 88 -245 20 -66 47 -156 60
-200 14 -44 40 -132 59 -195 19 -63 40 -133 48 -154 15 -45 -97 14 1051 -557
l549 -273 86 45 c516 270 509 265 612 353 52 44 102 87 111 96 9 8 27 24 40
35 146 121 189 161 205 190 10 19 22 35 26 35 5 0 8 4 8 9 0 5 47 84 105 175
70 111 116 198 139 259 37 97 91 308 102 392 3 28 8 52 9 55 2 3 6 34 10 69 4
34 8 70 10 79 1 9 6 53 10 97 4 44 9 91 11 105 24 201 24 908 0 1120 -2 19 -7
64 -11 100 -33 348 -65 490 -164 737 l-80 202 -133 179 c-103 138 -153 196
-223 256 -49 43 -104 90 -120 105 -17 14 -59 51 -95 82 -114 99 -489 304
-1335 729 -445 224 -821 410 -835 415 -33 10 -40 12 -42 15 -2 1 -10 3 -18 5
-8 2 -67 22 -130 45 -235 85 -306 109 -365 120 -100 19 -106 20 -215 40 -58
11 -117 22 -132 25 -16 3 -40 7 -55 10 -16 3 -39 8 -53 11 -36 8 -124 19 -245
30 -61 6 -303 12 -308 8z"/>
</g>
</svg>
